<svg id="그룹_730" data-name="그룹 730" xmlns="http://www.w3.org/2000/svg" width="36.065" height="36.065" viewBox="0 0 36.065 36.065">
  <ellipse id="타원_1" data-name="타원 1" cx="2.555" cy="2.555" rx="2.555" ry="2.555" transform="translate(15.48 18.248)" fill="#fff"/>
  <path id="패스_265" data-name="패스 265" d="M-167.588,443.863a8.78,8.78,0,0,1-8.779,8.779,8.776,8.776,0,0,1-8.779-8.779V431.917a2.326,2.326,0,0,1,2.311-2.337,2.327,2.327,0,0,1,2.317,2.337l-.005,11.842a4.246,4.246,0,0,0,4.156,4.26,4.156,4.156,0,0,0,4.156-4.156,4.156,4.156,0,0,0-4.156-4.156,4.14,4.14,0,0,0-2.555.876V438.8a5.627,5.627,0,0,1,2.555-.606,5.665,5.665,0,0,1,5.664,5.664,5.67,5.67,0,0,1-5.664,5.67,5.671,5.671,0,0,1-5.67-5.67V431.84a.8.8,0,0,0-.8-.757.8.8,0,0,0-.793.757v12.023c0,.181.005.363.021.539a7.259,7.259,0,0,0,7.24,6.722,7.262,7.262,0,0,0,7.261-7.261,7.262,7.262,0,0,0-7.261-7.261,7.3,7.3,0,0,0-2.555.461v-1.6a8.831,8.831,0,0,1,2.555-.378A8.78,8.78,0,0,1-167.588,443.863Z" transform="translate(194.402 -423.06)" fill="#fff"/>
  <path id="패스_266" data-name="패스 266" d="M-175.031,417h-19.885c-4.84,0-8.09,3.28-8.09,7.748v20.574c0,4.462,3.249,7.743,8.09,7.743h19.885c4.84,0,8.09-3.28,8.09-7.743V424.748C-166.941,420.28-170.191,417-175.031,417Zm-9.94,31.173A10.375,10.375,0,0,1-195.346,437.9v-4.872s.005-7.338.016-7.385a3.94,3.94,0,0,1,3.892-3.752,3.945,3.945,0,0,1,3.9,3.752.632.632,0,0,1,.016.135v1.969a10.333,10.333,0,0,1,2.555-.321A10.375,10.375,0,0,1-174.6,437.8,10.371,10.371,0,0,1-184.971,448.173Z" transform="translate(203.006 -417)" fill="#fff"/>
</svg>
