<svg xmlns="http://www.w3.org/2000/svg" width="36.065" height="35.789" viewBox="0 0 36.065 35.789">
  <g id="그룹_729" data-name="그룹 729" transform="translate(0)">
    <path id="패스_259" data-name="패스 259" d="M-188.15,354.429a2.484,2.484,0,0,0-1.6.741V352.2h-1.871V360h1.892v-.614a1.794,1.794,0,0,0,1.575.808,2.76,2.76,0,0,0,2.638-2.914S-185.609,354.429-188.15,354.429Zm-.414,4.116a1.2,1.2,0,0,1-1.2-1.2,1.2,1.2,0,0,1,1.2-1.207,1.2,1.2,0,0,1,1.2,1.207A1.2,1.2,0,0,1-188.564,358.545Z" transform="translate(197.414 -343.069)" fill="#fff"/>
    <path id="패스_260" data-name="패스 260" d="M-175.837,354.785v5.046h-1.81v-4.617c0-1.6-.849-1.554-.849-1.554v-1.81C-175.761,351.85-175.837,354.785-175.837,354.785Z" transform="translate(191.002 -342.898)" fill="#fff"/>
    <path id="패스_261" data-name="패스 261" d="M-167.628,356.62s-3.1,0-3.1,2.889a2.8,2.8,0,0,0,3.1,2.848s3.165-.005,3.165-2.848A2.84,2.84,0,0,0-167.628,356.62Zm0,4.085a1.2,1.2,0,0,1-1.2-1.2,1.2,1.2,0,0,1,1.2-1.207,1.2,1.2,0,0,1,1.2,1.207A1.2,1.2,0,0,1-167.628,360.705Z" transform="translate(187.204 -345.229)" fill="#fff"/>
    <path id="패스_262" data-name="패스 262" d="M-152.4,356.8v.532a2.061,2.061,0,0,0-1.575-.711,2.575,2.575,0,0,0-2.648,2.863s-.026,2.781,2.577,2.781a2.153,2.153,0,0,0,1.646-.716v.44a1.192,1.192,0,0,1-1.2,1.37h-.45v1.656h.731a2.717,2.717,0,0,0,2.735-2.924V356.8Zm-1.12,3.906a1.2,1.2,0,0,1-1.2-1.2,1.2,1.2,0,0,1,1.2-1.207,1.2,1.2,0,0,1,1.2,1.207A1.2,1.2,0,0,1-153.523,360.7Z" transform="translate(180.313 -345.228)" fill="#fff"/>
    <path id="패스_267" data-name="패스 267" d="M-173.451,334.34H-196.4a6.55,6.55,0,0,0-6.554,6.549v22.68a6.556,6.556,0,0,0,6.554,6.56h22.951a6.56,6.56,0,0,0,6.56-6.56v-22.68A6.555,6.555,0,0,0-173.451,334.34Zm3.553,19.29a4.841,4.841,0,0,1-4.831,4.847h-7.209l-2.459,4a.549.549,0,0,1-.082.118.831.831,0,0,1-.716.409.831.831,0,0,1-.716-.414,1.016,1.016,0,0,1-.077-.112l-2.459-4h-7.214a4.836,4.836,0,0,1-4.826-4.847V342.122a4.836,4.836,0,0,1,4.826-4.847h20.931a4.841,4.841,0,0,1,4.831,4.847Z" transform="translate(202.956 -334.34)" fill="#fff"/>
  </g>
</svg>
