<svg id="Layer_1" data-name="Layer 1" xmlns="http://www.w3.org/2000/svg" viewBox="0 0 100 100"><defs><style>.cls-1{fill:#fff;}.cls-2,.cls-6{fill:#f1b418;}.cls-3{fill:#8c653b;}.cls-10,.cls-11,.cls-3,.cls-4,.cls-5,.cls-6,.cls-7,.cls-8,.cls-9{fill-rule:evenodd;}.cls-4{fill:#f1b51a;}.cls-5{fill:#8d653b;}.cls-7{fill:#f1b61d;}.cls-8{fill:#f1b519;}.cls-9{fill:#8d663c;}.cls-10{fill:#8e673d;}.cls-11{fill:#8e663b;}</style></defs><rect class="cls-1" width="100" height="100" rx="24"/><path class="cls-2" d="M84.67-116.82a7.27,7.27,0,0,1,6.74-2.46,6.72,6.72,0,0,1,5.36,4.64,19.92,19.92,0,0,1,1,7.49,19.16,19.16,0,0,1-.7,5.68,6.67,6.67,0,0,1-.46,1.11,2.38,2.38,0,0,1-2.38,1.5,2.84,2.84,0,0,1-2.65-1.79,7,7,0,0,1-.4-2.58c0-2,.12-3.92.16-5.89a5.34,5.34,0,0,0-.34-2.09,2.79,2.79,0,0,0-3.56-1.73,2.75,2.75,0,0,0-.88.5,4.28,4.28,0,0,0-1.7,3.51c0,1.88.3,3.73.3,5.6a8.32,8.32,0,0,1-.31,2.32,2.93,2.93,0,0,1-2.7,2.34,3.32,3.32,0,0,1-3.65-2.09,9.66,9.66,0,0,1-.49-4.33,74.16,74.16,0,0,0-.08-8.82c-.09-1.68.16-3.27,1.65-4.37a3,3,0,0,1,4.67.77C84.39-117.3,84.51-117.07,84.67-116.82Z" transform="translate(-8.26 165.17)"/><path class="cls-3" d="M75.13-129.18a3.29,3.29,0,0,1-3.47,3.11,3.29,3.29,0,0,1-3.47-3.11,3.29,3.29,0,0,1,3.47-3.1A3.29,3.29,0,0,1,75.13-129.18Z" transform="translate(-8.26 165.17)"/><path class="cls-3" d="M53.62-129.18a3.3,3.3,0,0,1-3.48,3.11,3.29,3.29,0,0,1-3.46-3.11,3.29,3.29,0,0,1,3.46-3.1A3.31,3.31,0,0,1,53.62-129.18Z" transform="translate(-8.26 165.17)"/><path class="cls-4" d="M43.87-104.74a8.32,8.32,0,0,1-2.52,4.9,4.51,4.51,0,0,1-2,1.06,4.17,4.17,0,0,0-1-1,3.46,3.46,0,0,0-3.71-.68,5.26,5.26,0,0,0-2.5,2.25,6.11,6.11,0,0,1-.86-.07l-.85-.09c-.55-.06-1.1-.14-1.65-.25a13.84,13.84,0,0,1-3.06-1,12.22,12.22,0,0,1-2.69-1.67,10.06,10.06,0,0,1-2.2-2.62A16.71,16.71,0,0,1,19-108.08a7.65,7.65,0,0,1-.22-1.16,3.84,3.84,0,0,1,0-.83c1.31.56,1.79.45,2.74-.68a5,5,0,0,0,.69-1.07,13.61,13.61,0,0,0,1.43-6.81,2.26,2.26,0,0,0-1.74-2.44,9.35,9.35,0,0,1,3-2.74,13.9,13.9,0,0,1,3.88-1.72,13.57,13.57,0,0,0,1.68,2.1,3.77,3.77,0,0,0,5.69,0,12,12,0,0,0,2.15-2.92,4.25,4.25,0,0,1,3.9,2.93,2.24,2.24,0,0,1-1.63,2.72,2.5,2.5,0,0,1-.38.06,8.28,8.28,0,0,1-2-.09,11.93,11.93,0,0,0-10.16,2.56,8,8,0,0,0-2.8,7.2,8.08,8.08,0,0,0,2.38,5.57,7.92,7.92,0,0,0,8.19,1.59,2.65,2.65,0,0,0,1.78-3.31,2.57,2.57,0,0,0-3-2.21c-.57,0-1.14.11-1.71.09a2.1,2.1,0,0,1-2.11-1.6c-.38-1.26-.15-2.65.72-3.13a9.68,9.68,0,0,1,6.94-1.13,3.17,3.17,0,0,0-.76,2.84,10.89,10.89,0,0,0,3.09,5.61A5.83,5.83,0,0,0,43.87-104.74ZM26.7-104a2.66,2.66,0,0,0-.4-1.43,1.22,1.22,0,0,0-1.47-.59,1.27,1.27,0,0,0-.93,1.28,2.73,2.73,0,0,0,1,2.08,1,1,0,0,0,1.08.35,1.12,1.12,0,0,0,.71-1.06C26.67-103.58,26.68-103.78,26.7-104Z" transform="translate(-8.26 165.17)"/><path class="cls-5" d="M21.89-121a2.25,2.25,0,0,1,1.74,2.46,13.84,13.84,0,0,1-1.42,6.84,5.13,5.13,0,0,1-.7,1.08c-1,1.14-1.72,1.25-2.71.68-.07,0,0-.27,0-.34,0-.93,0-1.86.06-2.78a10.71,10.71,0,0,1,.24-1.7c.07-.3.08-.6.16-.9A12.35,12.35,0,0,1,21.89-121Z" transform="translate(-8.26 165.17)"/><path class="cls-6" d="M64.1-115.29v12.43a5,5,0,0,1-.68,2.73,2.63,2.63,0,0,1-3.57,1,2.67,2.67,0,0,1-1-.88,4.38,4.38,0,0,1-.79-2.69v-24.72a8.08,8.08,0,0,1,.13-1.56,3,3,0,0,1,3.24-2.74,2.49,2.49,0,0,1,1.78,1.07,4.73,4.73,0,0,1,.85,3Z" transform="translate(-8.26 165.17)"/><path class="cls-7" d="M47.13-111.2v-9.22a3,3,0,0,1,2.8-3.14,3,3,0,0,1,1.25.2,2.93,2.93,0,0,1,2,3.06v18.35a3,3,0,0,1-4,3,2.88,2.88,0,0,1-2-3C47.12-105,47.13-108.11,47.13-111.2Z" transform="translate(-8.26 165.17)"/><path class="cls-8" d="M74.66-111.17v9.27a2.88,2.88,0,0,1-3,3.12,2.89,2.89,0,0,1-3-3.13v-18.46a2.88,2.88,0,0,1,2.64-3.1h.4a2.87,2.87,0,0,1,3,3.12C74.67-117.31,74.66-114.25,74.66-111.17Z" transform="translate(-8.26 165.17)"/><path class="cls-5" d="M43.87-104.74a5.83,5.83,0,0,1-3-1.91,10.86,10.86,0,0,1-3.09-5.59,3.16,3.16,0,0,1,.76-2.86,6.31,6.31,0,0,1,4.71,3.83A10.12,10.12,0,0,1,43.87-104.74Z" transform="translate(-8.26 165.17)"/><path class="cls-9" d="M38.35-126.35a12,12,0,0,1-2.15,2.92,3.77,3.77,0,0,1-5.69,0,12.78,12.78,0,0,1-1.7-2.11A18.13,18.13,0,0,1,38.35-126.35Z" transform="translate(-8.26 165.17)"/><path class="cls-10" d="M32.17-98.22a5.26,5.26,0,0,1,2.5-2.25,3.48,3.48,0,0,1,3.71.68,4.17,4.17,0,0,1,1,1,8.43,8.43,0,0,1-3.24.67A18.16,18.16,0,0,1,32.17-98.22Z" transform="translate(-8.26 165.17)"/><path class="cls-11" d="M26.7-104c0,.2,0,.42-.05.63a1.13,1.13,0,0,1-.7,1.06,1,1,0,0,1-1.08-.36,2.71,2.71,0,0,1-1-2.07,1.28,1.28,0,0,1,.93-1.29,1.24,1.24,0,0,1,1.47.6A2.65,2.65,0,0,1,26.7-104Z" transform="translate(-8.26 165.17)"/></svg>