<svg xmlns="http://www.w3.org/2000/svg" width="15.19" height="18.132" viewBox="0 0 15.19 18.132">
  <g id="icon_apple" transform="translate(-480.382 -229.223)">
    <path id="패스_9389" data-name="패스 9389" d="M495.022,242.832c-2.7,3.07-2.526,5.541.55,7.574a9.929,9.929,0,0,1-2.549,4.053,2.212,2.212,0,0,1-2.409.541,5.691,5.691,0,0,0-4.643.015,2.187,2.187,0,0,1-2.584-.729,10.509,10.509,0,0,1-2.976-8.043,7.814,7.814,0,0,1,.773-2.88,3.745,3.745,0,0,1,4.589-2.048,7.617,7.617,0,0,0,4.669-.031C492.275,240.669,493.7,241.267,495.022,242.832Z" transform="translate(0 -7.839)" fill="#fff"/>
    <path id="패스_9390" data-name="패스 9390" d="M502.736,233.456a3.9,3.9,0,0,1,3.446-4.233A3.814,3.814,0,0,1,502.736,233.456Z" transform="translate(-14.818)" fill="#fff"/>
  </g>
</svg>
