<svg xmlns="http://www.w3.org/2000/svg" width="19.492" height="18" viewBox="0 0 19.492 18">
  <g id="icon_kakao" transform="translate(282.172 -89.207)">
    <path id="패스_8649" data-name="패스 8649" d="M-272.427,89.207c-5.382,0-9.745,3.446-9.745,7.7,0,2.735,1.808,5.129,4.523,6.5l-.919,3.428a.285.285,0,0,0,.069.293.279.279,0,0,0,.2.081.28.28,0,0,0,.169-.065l3.949-2.667a12.333,12.333,0,0,0,1.754.128c5.382,0,9.747-3.446,9.747-7.7s-4.365-7.7-9.747-7.7" fill="#2b1718"/>
    <g id="그룹_19488" data-name="그룹 19488" transform="translate(-278.976 95.025)">
      <path id="패스_8650" data-name="패스 8650" d="M-275.384,100h-.894a.593.593,0,0,1-.317-.084.353.353,0,0,1-.165-.24c0-.027-.009-.059-.013-.092a.361.361,0,0,1,.141-.3.554.554,0,0,1,.352-.11h2.735a.581.581,0,0,1,.317.085.355.355,0,0,1,.166.24.448.448,0,0,1,.006.09.374.374,0,0,1-.137.308.55.55,0,0,1-.35.108h-.894v3.082a.494.494,0,0,1-.13.357.454.454,0,0,1-.346.134.478.478,0,0,1-.3-.1.444.444,0,0,1-.16-.268.526.526,0,0,1-.008-.127Z" transform="translate(276.773 -99.089)" fill="#ffdf00"/>
      <path id="패스_8651" data-name="패스 8651" d="M-271.013,99.336a.42.42,0,0,1,.172-.231.546.546,0,0,1,.289-.069h.228a.589.589,0,0,1,.309.075.5.5,0,0,1,.2.285l1.142,3.312a1.96,1.96,0,0,1,.077.263.95.95,0,0,1,.017.114.414.414,0,0,1-.133.305.429.429,0,0,1-.315.125.4.4,0,0,1-.424-.27l-.245-.72h-1.524l-.246.72a.4.4,0,0,1-.424.27.441.441,0,0,1-.279-.086.4.4,0,0,1-.146-.244.532.532,0,0,1-.008-.1.528.528,0,0,1,.025-.174c.018-.069.04-.137.065-.2Zm.572.768h-.012l-.558,1.738h1.107Z" transform="translate(274.958 -99.036)" fill="#ffdf00"/>
      <path id="패스_8652" data-name="패스 8652" d="M-265.753,99.527a.5.5,0,0,1,.129-.356.455.455,0,0,1,.347-.135.472.472,0,0,1,.3.1.453.453,0,0,1,.158.268.46.46,0,0,1,.008.125v3.083h1.581a.576.576,0,0,1,.32.084.366.366,0,0,1,.16.241.665.665,0,0,1,.014.09.364.364,0,0,1-.14.306.56.56,0,0,1-.352.108H-265.2a.621.621,0,0,1-.356-.091.43.43,0,0,1-.179-.292,1.275,1.275,0,0,1-.021-.194Z" transform="translate(272.277 -99.036)" fill="#ffdf00"/>
      <path id="패스_8653" data-name="패스 8653" d="M-260.49,99.527a.505.505,0,0,1,.129-.356.456.456,0,0,1,.347-.135.47.47,0,0,1,.3.1.443.443,0,0,1,.159.268.484.484,0,0,1,.009.125l0,1.433,1.487-1.709a1.033,1.033,0,0,1,.18-.163.352.352,0,0,1,.2-.053.484.484,0,0,1,.283.088.355.355,0,0,1,.157.231s0,.017.007.037a.143.143,0,0,0,0,.04.381.381,0,0,1-.044.18.9.9,0,0,1-.112.158l-.973,1.062,1.15,1.821.035.056a.982.982,0,0,1,.136.275s0,.014.007.029a.128.128,0,0,0,0,.031.433.433,0,0,1-.142.363.549.549,0,0,1-.344.11.476.476,0,0,1-.236-.051.627.627,0,0,1-.186-.206l-1.09-1.756-.52.541.005.98a.5.5,0,0,1-.13.357.459.459,0,0,1-.347.134.48.48,0,0,1-.3-.1.444.444,0,0,1-.159-.268.592.592,0,0,1-.008-.127Z" transform="translate(270.128 -99.036)" fill="#ffdf00"/>
    </g>
  </g>
</svg>
