<svg id="그룹_728" data-name="그룹 728" xmlns="http://www.w3.org/2000/svg" width="36.065" height="36.137" viewBox="0 0 36.065 36.137">
  <g id="그룹_727" data-name="그룹 727" transform="translate(0 0)">
    <path id="패스_268" data-name="패스 268" d="M-66.5,394.029V380.79a1.815,1.815,0,0,0,.072-.288c.029-.437.054-.871.073-1.308a11.6,11.6,0,0,1,.745-3.552,9.019,9.019,0,0,1,3-4.054,10.282,10.282,0,0,1,5.442-2.017c1.247-.123,2.506-.114,3.762-.153.439-.017.88,0,1.322-.006a1.7,1.7,0,0,0,.323-.073h6.583a.824.824,0,0,0,.215.073c1.2.026,2.4.03,3.6.081.809.034,1.616.117,2.422.212a9.419,9.419,0,0,1,3.218,1.012,8.945,8.945,0,0,1,2.812,2.251,9.507,9.507,0,0,1,1.619,2.809,14.007,14.007,0,0,1,.787,4.87,2.875,2.875,0,0,0,.072.427v12.738c-.025.049-.068.094-.069.144-.03.531-.035,1.065-.082,1.6a14.02,14.02,0,0,1-.228,1.92,9.655,9.655,0,0,1-2.948,5.3A9.546,9.546,0,0,1-37,404.686a14.729,14.729,0,0,1-4.888.718,2.615,2.615,0,0,0-.431.073H-54.627a.993.993,0,0,0-.215-.073c-1.01-.073-2.024-.117-3.033-.222a9.6,9.6,0,0,1-3.042-.887,9.263,9.263,0,0,1-3.059-2.321,8.818,8.818,0,0,1-1.514-2.437,13.24,13.24,0,0,1-.944-5.189A1.467,1.467,0,0,0-66.5,394.029Zm24.086,8.159c0-.011,0-.023,0-.036q1.13-.089,2.26-.178a7.449,7.449,0,0,0,3.1-.92,5.808,5.808,0,0,0,2.389-2.523,8.393,8.393,0,0,0,.786-3.071c.091-1.048.146-2.1.146-3.155,0-3.536-.042-7.072-.062-10.61a18.605,18.605,0,0,0-.282-3.555A6.459,6.459,0,0,0-35.8,374.75a6.374,6.374,0,0,0-2.946-1.623,16.419,16.419,0,0,0-4.169-.408c-3.921-.03-7.838.038-11.756.05a15.257,15.257,0,0,0-3.232.293,6.154,6.154,0,0,0-3.907,2.483,7.446,7.446,0,0,0-1.247,3.784c-.109,1.392-.126,2.794-.152,4.192-.023,1.3-.022,2.6,0,3.9q.054,3.849.143,7.7a8.415,8.415,0,0,0,.7,3.2,5.894,5.894,0,0,0,2.759,2.907,8.032,8.032,0,0,0,3.136.811c1.143.087,2.3.141,3.442.143C-49.494,402.2-45.959,402.188-42.419,402.188Z" transform="translate(66.505 -369.34)" fill="#fff"/>
    <path id="패스_269" data-name="패스 269" d="M-49.591,395.694a9.261,9.261,0,0,1,9.716-9.3A9.238,9.238,0,0,1-31,395.921a9.208,9.208,0,0,1-9.442,9.05A9.229,9.229,0,0,1-49.591,395.694Zm15.241-.013A5.925,5.925,0,0,0-40.3,389.7a5.916,5.916,0,0,0-5.97,5.985,5.933,5.933,0,0,0,5.636,5.949A5.948,5.948,0,0,0-34.35,395.681Z" transform="translate(58.323 -377.585)" fill="#fff" fill-rule="evenodd"/>
  </g>
  <path id="패스_270" data-name="패스 270" d="M-16.167,383.691a2.182,2.182,0,0,1,2.266-2.2,2.277,2.277,0,0,1,2.11,2.269,2.256,2.256,0,0,1-2.251,2.132A2.171,2.171,0,0,1-16.167,383.691Z" transform="translate(42.159 -375.216)" fill="#fff" fill-rule="evenodd"/>
</svg>
