<svg xmlns="http://www.w3.org/2000/svg" width="24" height="24" viewBox="0 0 24 24">
  <g id="그룹_1023" data-name="그룹 1023" transform="translate(-1331 47)">
    <path id="패스_130" data-name="패스 130" d="M0,0H24V24H0Z" transform="translate(1331 -47)" fill="rgba(85,47,47,0)"/>
    <path id="패스_123" data-name="패스 123" d="M818.447,182.131c-3.866,0-7,2.477-7,5.534a5.408,5.408,0,0,0,3.321,4.708c-.146.546-.53,1.98-.607,2.286-.1.381.139.376.293.274.121-.08,1.918-1.3,2.694-1.831a8.833,8.833,0,0,0,1.3.1c3.866,0,7-2.477,7-5.534s-3.134-5.534-7-5.534" transform="translate(524.553 -223.131)" fill="#ffcb46"/>
  </g>
</svg>
