<svg xmlns="http://www.w3.org/2000/svg" xmlns:xlink="http://www.w3.org/1999/xlink" width="1008" height="678" viewBox="0 0 1008 678"><defs><clipPath id="a"><rect width="1008" height="678" transform="translate(0)" fill="none"/></clipPath></defs><g clip-path="url(#a)"><path d="M-26.772,503.906c103.665-27.247,83.6-13.025,131.124,15.356s105.73,90.642,136.66,113.352,31.487,73.752-48.447,73.815-256.016,8.715-257.989-12.422S-26.772,503.906-26.772,503.906Z" fill="#8c643a"/><path d="M770.96-8.778s-.737,53.742,109.169,57.9S1021,141,1021,141V-8.778Z" fill="#8c643a"/><path d="M563.42,466.25c19.428,7.62,17.564,42.383.2,42.99s-25.043-2.45-28.922-27.759S543.992,458.63,563.42,466.25Z" fill="#8c643a"/><path d="M1028,292.557s-162.437,54.71-151.416,106.9,65.728,78.121,82.492,99.9S1028,531.931,1028,531.931Z" fill="#8c643a"/><path d="M739.253,212.467c16.982-5.155,39.423,9.69,29.087,18.7s-9.922,17.447-29.087,13.028-23.451-13.977-20.528-21.14S722.267,217.622,739.253,212.467Z" fill="#8c643a"/><path d="M68.379,210.837c3.9-10.982,18.088-21.123,46.363-18.874s27.322,11.475,10.467,25.711-43.873,29-56.932,23.177S68.379,210.837,68.379,210.837Z" fill="#8c643a"/><path d="M838.171,606.262s40,40.005,13.187,74.56-24.142,20.329-62.509,14.87-75.956-21.7-51.9-46.566S786.27,559.7,838.171,606.262Z" fill="#8c643a"/></g></svg>