<svg xmlns="http://www.w3.org/2000/svg" viewBox="0 0 44.31 63"><defs><style>.cls-1{isolation:isolate;}.cls-2{fill:#fff;stroke:#000;stroke-linecap:round;stroke-linejoin:round;stroke-width:2.5px;}.cls-3{fill:#8c643a;mix-blend-mode:darken;}</style></defs><g class="cls-1"><g id="레이어_2" data-name="레이어 2"><g id="Layer_3" data-name="Layer 3"><path class="cls-2" d="M38,7.49A13.78,13.78,0,0,0,26.5,1.25H17.81A13.76,13.76,0,0,0,9.42,4.09,14,14,0,0,0,6.28,7.46,13.72,13.72,0,0,0,4,15.05v8.69a13.8,13.8,0,0,0,13.8,13.8H26.5a13.8,13.8,0,0,0,13.8-13.8V15.05A13.7,13.7,0,0,0,38,7.49Z"/><rect class="cls-2" x="16.96" y="42.05" width="10.39" height="7.99"/><path class="cls-2" d="M37,18.68V30.44a13,13,0,0,1-1.15,5.38,13.21,13.21,0,0,1-12.07,7.83H20.56a8.51,8.51,0,0,1-.88,0l-.34,0c-.23,0-.46,0-.68-.08a.45.45,0,0,1-.16,0,6.86,6.86,0,0,1-.79-.14l-.15,0a5.47,5.47,0,0,1-.58-.15c-.15,0-.29-.08-.43-.12-.48-.16-1-.34-1.4-.54-.23-.1-.46-.21-.68-.33l0,0a7,7,0,0,1-.66-.37,12.33,12.33,0,0,1-1.87-1.35c-.19-.17-.38-.34-.56-.52s-.36-.36-.53-.55-.34-.38-.5-.58-.32-.4-.47-.61a12.42,12.42,0,0,1-1.36-2.34,13,13,0,0,1-1.15-5.38V18.68c0-.42,0-.83.06-1.24a11.55,11.55,0,0,0,10-8.54,11.54,11.54,0,0,0,10.48,6.71V12a11.54,11.54,0,0,0,9,5.89C37,18.15,37,18.41,37,18.68Z"/><path class="cls-2" d="M25.06,32.68h0A2.06,2.06,0,0,1,23,34.74H21.31a2.06,2.06,0,0,1-2.06-2.06h0"/><path class="cls-3" d="M37,18.68V30.44a13,13,0,0,1-1.15,5.38,13.21,13.21,0,0,1-12.07,7.83H20.56a8.51,8.51,0,0,1-.88,0l-.34,0c-.23,0-.46,0-.68-.08a.45.45,0,0,1-.16,0,6.86,6.86,0,0,1-.79-.14l-.15,0a5.47,5.47,0,0,1-.58-.15c-.15,0-.29-.08-.43-.12-.48-.16-1-.34-1.4-.54-.23-.1-.46-.21-.68-.33l0,0a7,7,0,0,1-.66-.37,13.28,13.28,0,0,1-1.87-1.35c-.19-.17-.38-.34-.56-.52s-.36-.36-.53-.55-.34-.38-.5-.58-.32-.4-.47-.61a13.12,13.12,0,0,0,7.72,2.51h3.19A13.21,13.21,0,0,0,34,27.45V17.2a11.61,11.61,0,0,0,3,.68C37,18.15,37,18.41,37,18.68Z"/><line class="cls-2" x1="17.83" y1="21.83" x2="17.83" y2="23.52"/><line class="cls-2" x1="26.48" y1="21.83" x2="26.48" y2="23.52"/><ellipse class="cls-3" cx="22.15" cy="27.2" rx="2.22" ry="1.19"/><path class="cls-2" d="M9.07,50H35.23a7.82,7.82,0,0,1,7.82,7.82v3.89a0,0,0,0,1,0,0H1.25a0,0,0,0,1,0,0V57.86A7.82,7.82,0,0,1,9.07,50Z"/><rect class="cls-3" x="24.1" y="43.65" width="3.25" height="6.39"/><path class="cls-3" d="M35.23,50H31.7a7.82,7.82,0,0,1,7.82,7.82v3.89h3.54V57.86A7.83,7.83,0,0,0,35.23,50Z"/></g></g></g></svg>