<svg id="그룹_853" data-name="그룹 853" xmlns="http://www.w3.org/2000/svg" width="299.054" height="299.054" viewBox="0 0 299.054 299.054">
  <path id="패스_434" data-name="패스 434" d="M1568.417-458.549A120.851,120.851,0,0,0,1447.523-337.7a120.887,120.887,0,0,0,120.894,120.893A120.877,120.877,0,0,0,1689.268-337.7,120.841,120.841,0,0,0,1568.417-458.549Zm0,157.335a36.466,36.466,0,0,1-36.482-36.485,36.455,36.455,0,0,1,36.482-36.44,36.448,36.448,0,0,1,36.442,36.44A36.458,36.458,0,0,1,1568.417-301.214Z" transform="translate(-1418.874 487.216)" fill="#fde3a1"/>
  <g id="그룹_852" data-name="그룹 852" transform="translate(0)">
    <rect id="사각형_1215" data-name="사각형 1215" width="40.256" height="43.764" transform="translate(129.399)" fill="#fde3a1"/>
    <rect id="사각형_1216" data-name="사각형 1216" width="40.256" height="43.764" transform="matrix(0.866, -0.5, 0.5, 0.866, 57.332, 30.097)" fill="#fde3a1"/>
    <rect id="사각형_1217" data-name="사각형 1217" width="40.256" height="43.764" transform="matrix(0.5, -0.866, 0.866, 0.5, 9.969, 92.195)" fill="#fde3a1"/>
    <rect id="사각형_1218" data-name="사각형 1218" width="40.256" height="43.764" transform="translate(0 169.655) rotate(-90)" fill="#fde3a1"/>
    <rect id="사각형_1219" data-name="사각형 1219" width="40.256" height="43.764" transform="matrix(-0.5, -0.866, 0.866, -0.5, 30.097, 241.722)" fill="#fde3a1"/>
    <rect id="사각형_1220" data-name="사각형 1220" width="40.256" height="43.764" transform="matrix(-0.866, -0.5, 0.5, -0.866, 92.195, 289.085)" fill="#fde3a1"/>
    <rect id="사각형_1221" data-name="사각형 1221" width="40.256" height="43.764" transform="translate(169.655 299.054) rotate(180)" fill="#fde3a1"/>
    <rect id="사각형_1222" data-name="사각형 1222" width="40.256" height="43.764" transform="matrix(-0.866, 0.5, -0.5, -0.866, 241.722, 268.957)" fill="#fde3a1"/>
    <rect id="사각형_1223" data-name="사각형 1223" width="40.256" height="43.764" transform="matrix(-0.5, 0.866, -0.866, -0.5, 289.086, 206.859)" fill="#fde3a1"/>
    <rect id="사각형_1224" data-name="사각형 1224" width="40.256" height="43.764" transform="translate(299.054 129.399) rotate(90)" fill="#fde3a1"/>
    <rect id="사각형_1225" data-name="사각형 1225" width="40.256" height="43.764" transform="matrix(0.5, 0.866, -0.866, 0.5, 268.957, 57.332)" fill="#fde3a1"/>
    <rect id="사각형_1226" data-name="사각형 1226" width="40.256" height="43.764" transform="matrix(0.866, 0.5, -0.5, 0.866, 206.859, 9.969)" fill="#fde3a1"/>
  </g>
</svg>
